<?xml version="1.0" encoding="us-ascii" standalone="no"?><svg xmlns="http://www.w3.org/2000/svg" xmlns:xlink="http://www.w3.org/1999/xlink" contentStyleType="text/css" height="607px" preserveAspectRatio="none" style="width:770px;height:607px;background:#FFFFFF;" version="1.1" viewBox="0 0 770 607" width="770px" zoomAndPan="magnify"><defs/><g><!--cluster A--><g id="cluster_A"><path d="M8.5,6.602 L19.5,6.602 A3.75,3.75 0 0 1 22,9.102 L29,31.6699 L760.5,31.6699 A2.5,2.5 0 0 1 763,34.1699 L763,598.372 A2.5,2.5 0 0 1 760.5,600.872 L8.5,600.872 A2.5,2.5 0 0 1 6,598.372 L6,9.102 A2.5,2.5 0 0 1 8.5,6.602 " fill="none" style="stroke:#000000;stroke-width:1.5;"/><line style="stroke:#000000;stroke-width:1.5;" x1="6" x2="29" y1="31.6699" y2="31.6699"/><text fill="#000000" font-family="sans-serif" font-size="14" font-weight="bold" lengthAdjust="spacing" textLength="10" x="10" y="23.5679">A</text></g><!--cluster B--><g id="cluster_B"><path d="M32.5,98.602 L42.5,98.602 A3.75,3.75 0 0 1 45,101.102 L52,123.6699 L157.5,123.6699 A2.5,2.5 0 0 1 160,126.1699 L160,288.232 A2.5,2.5 0 0 1 157.5,290.732 L32.5,290.732 A2.5,2.5 0 0 1 30,288.232 L30,101.102 A2.5,2.5 0 0 1 32.5,98.602 " fill="none" style="stroke:#000000;stroke-width:1.5;"/><line style="stroke:#000000;stroke-width:1.5;" x1="30" x2="52" y1="123.6699" y2="123.6699"/><text fill="#000000" font-family="sans-serif" font-size="14" font-weight="bold" lengthAdjust="spacing" textLength="9" x="34" y="115.5679">B</text></g><!--cluster C--><g id="cluster_C"><path d="M186.5,52.602 L196.5,52.602 A3.75,3.75 0 0 1 199,55.102 L206,77.6699 L627.5,77.6699 A2.5,2.5 0 0 1 630,80.1699 L630,574.372 A2.5,2.5 0 0 1 627.5,576.872 L186.5,576.872 A2.5,2.5 0 0 1 184,574.372 L184,55.102 A2.5,2.5 0 0 1 186.5,52.602 " fill="none" style="stroke:#000000;stroke-width:1.5;"/><line style="stroke:#000000;stroke-width:1.5;" x1="184" x2="206" y1="77.6699" y2="77.6699"/><text fill="#000000" font-family="sans-serif" font-size="14" font-weight="bold" lengthAdjust="spacing" textLength="9" x="188" y="69.5679">C</text></g><!--cluster D--><g id="cluster_D"><path d="M210.5,98.602 L221.5,98.602 A3.75,3.75 0 0 1 224,101.102 L231,123.6699 L336.5,123.6699 A2.5,2.5 0 0 1 339,126.1699 L339,288.232 A2.5,2.5 0 0 1 336.5,290.732 L210.5,290.732 A2.5,2.5 0 0 1 208,288.232 L208,101.102 A2.5,2.5 0 0 1 210.5,98.602 " fill="none" style="stroke:#000000;stroke-width:1.5;"/><line style="stroke:#000000;stroke-width:1.5;" x1="208" x2="231" y1="123.6699" y2="123.6699"/><text fill="#000000" font-family="sans-serif" font-size="14" font-weight="bold" lengthAdjust="spacing" textLength="10" x="212" y="115.5679">D</text></g><!--cluster E--><g id="cluster_E"><path d="M365.5,98.602 L374.5,98.602 A3.75,3.75 0 0 1 377,101.102 L384,123.6699 L487.5,123.6699 A2.5,2.5 0 0 1 490,126.1699 L490,288.232 A2.5,2.5 0 0 1 487.5,290.732 L365.5,290.732 A2.5,2.5 0 0 1 363,288.232 L363,101.102 A2.5,2.5 0 0 1 365.5,98.602 " fill="none" style="stroke:#000000;stroke-width:1.5;"/><line style="stroke:#000000;stroke-width:1.5;" x1="363" x2="384" y1="123.6699" y2="123.6699"/><text fill="#000000" font-family="sans-serif" font-size="14" font-weight="bold" lengthAdjust="spacing" textLength="8" x="367" y="115.5679">E</text></g><!--cluster F--><g id="cluster_F"><path d="M210.5,314.732 L219.5,314.732 A3.75,3.75 0 0 1 222,317.232 L229,339.7999 L488.5,339.7999 A2.5,2.5 0 0 1 491,342.2999 L491,550.372 A2.5,2.5 0 0 1 488.5,552.872 L210.5,552.872 A2.5,2.5 0 0 1 208,550.372 L208,317.232 A2.5,2.5 0 0 1 210.5,314.732 " fill="none" style="stroke:#000000;stroke-width:1.5;"/><line style="stroke:#000000;stroke-width:1.5;" x1="208" x2="229" y1="339.7999" y2="339.7999"/><text fill="#000000" font-family="sans-serif" font-size="14" font-weight="bold" lengthAdjust="spacing" textLength="8" x="212" y="331.6979">F</text></g><!--cluster G--><g id="cluster_G"><path d="M234.5,360.732 L245.5,360.732 A3.75,3.75 0 0 1 248,363.232 L255,385.7999 L360.5,385.7999 A2.5,2.5 0 0 1 363,388.2999 L363,451.302 A2.5,2.5 0 0 1 360.5,453.802 L234.5,453.802 A2.5,2.5 0 0 1 232,451.302 L232,363.232 A2.5,2.5 0 0 1 234.5,360.732 " fill="none" style="stroke:#000000;stroke-width:1.5;"/><line style="stroke:#000000;stroke-width:1.5;" x1="232" x2="255" y1="385.7999" y2="385.7999"/><text fill="#000000" font-family="sans-serif" font-size="14" font-weight="bold" lengthAdjust="spacing" textLength="10" x="236" y="377.6979">G</text></g><g id="elem_x0"><rect fill="#F1F1F1" height="39.0679" style="stroke:#181818;stroke-width:0.5;" width="31" x="649.5" y="136.602"/><text fill="#000000" font-family="sans-serif" font-size="14" lengthAdjust="spacing" textLength="17" x="656.5" y="153.5679">: A</text><line style="stroke:#181818;stroke-width:0.5;" x1="650.5" x2="679.5" y1="159.6699" y2="159.6699"/></g><g id="elem_x1"><rect fill="#F1F1F1" height="39.0679" style="stroke:#181818;stroke-width:0.5;" width="31" x="715.5" y="136.602"/><text fill="#000000" font-family="sans-serif" font-size="14" lengthAdjust="spacing" textLength="17" x="722.5" y="153.5679">: A</text><line style="stroke:#181818;stroke-width:0.5;" x1="716.5" x2="745.5" y1="159.6699" y2="159.6699"/></g><g id="elem_x2"><rect fill="#F1F1F1" height="39.0679" style="stroke:#181818;stroke-width:0.5;" width="31" x="46.5" y="136.602"/><text fill="#000000" font-family="sans-serif" font-size="14" lengthAdjust="spacing" textLength="17" x="53.5" y="153.5679">: B</text><line style="stroke:#181818;stroke-width:0.5;" x1="47.5" x2="76.5" y1="159.6699" y2="159.6699"/></g><g id="elem_x3"><rect fill="#F1F1F1" height="39.0679" style="stroke:#181818;stroke-width:0.5;" width="31" x="112.5" y="136.602"/><text fill="#000000" font-family="sans-serif" font-size="14" lengthAdjust="spacing" textLength="17" x="119.5" y="153.5679">: B</text><line style="stroke:#181818;stroke-width:0.5;" x1="113.5" x2="142.5" y1="159.6699" y2="159.6699"/></g><g id="elem_x4"><rect fill="#F1F1F1" height="39.0679" style="stroke:#181818;stroke-width:0.5;" width="31" x="46.5" y="235.672"/><text fill="#000000" font-family="sans-serif" font-size="14" lengthAdjust="spacing" textLength="17" x="53.5" y="252.6379">: B</text><line style="stroke:#181818;stroke-width:0.5;" x1="47.5" x2="76.5" y1="258.7399" y2="258.7399"/></g><g id="elem_x5"><rect fill="#F1F1F1" height="39.0679" style="stroke:#181818;stroke-width:0.5;" width="31" x="112.5" y="235.672"/><text fill="#000000" font-family="sans-serif" font-size="14" lengthAdjust="spacing" textLength="17" x="119.5" y="252.6379">: B</text><line style="stroke:#181818;stroke-width:0.5;" x1="113.5" x2="142.5" y1="258.7399" y2="258.7399"/></g><g id="elem_x6"><rect fill="#F1F1F1" height="39.0679" style="stroke:#181818;stroke-width:0.5;" width="35" x="509.5" y="136.602"/><text fill="#000000" font-family="sans-serif" font-size="14" lengthAdjust="spacing" textLength="17" x="520.5" y="153.5679">: C</text><line style="stroke:#181818;stroke-width:0.5;" x1="510.5" x2="543.5" y1="159.6699" y2="159.6699"/></g><g id="elem_x7"><rect fill="#F1F1F1" height="39.0679" style="stroke:#181818;stroke-width:0.5;" width="35" x="579.5" y="136.602"/><text fill="#000000" font-family="sans-serif" font-size="14" lengthAdjust="spacing" textLength="17" x="590.5" y="153.5679">: C</text><line style="stroke:#181818;stroke-width:0.5;" x1="580.5" x2="613.5" y1="159.6699" y2="159.6699"/></g><g id="elem_x8"><rect fill="#F1F1F1" height="39.0679" style="stroke:#181818;stroke-width:0.5;" width="35" x="509.5" y="235.672"/><text fill="#000000" font-family="sans-serif" font-size="14" lengthAdjust="spacing" textLength="17" x="520.5" y="252.6379">: C</text><line style="stroke:#181818;stroke-width:0.5;" x1="510.5" x2="543.5" y1="258.7399" y2="258.7399"/></g><g id="elem_x18"><rect fill="#F1F1F1" height="39.0679" style="stroke:#181818;stroke-width:0.5;" width="32" x="224" y="136.602"/><text fill="#000000" font-family="sans-serif" font-size="14" lengthAdjust="spacing" textLength="18" x="231" y="153.5679">: D</text><line style="stroke:#181818;stroke-width:0.5;" x1="225" x2="255" y1="159.6699" y2="159.6699"/></g><g id="elem_x19"><rect fill="#F1F1F1" height="39.0679" style="stroke:#181818;stroke-width:0.5;" width="32" x="291" y="136.602"/><text fill="#000000" font-family="sans-serif" font-size="14" lengthAdjust="spacing" textLength="18" x="298" y="153.5679">: D</text><line style="stroke:#181818;stroke-width:0.5;" x1="292" x2="322" y1="159.6699" y2="159.6699"/></g><g id="elem_x14"><rect fill="#F1F1F1" height="39.0679" style="stroke:#181818;stroke-width:0.5;" width="32" x="257" y="235.672"/><text fill="#000000" font-family="sans-serif" font-size="14" lengthAdjust="spacing" textLength="18" x="264" y="252.6379">: D</text><line style="stroke:#181818;stroke-width:0.5;" x1="258" x2="288" y1="258.7399" y2="258.7399"/></g><g id="elem_x15"><rect fill="#F1F1F1" height="39.0679" style="stroke:#181818;stroke-width:0.5;" width="30" x="379" y="136.602"/><text fill="#000000" font-family="sans-serif" font-size="14" lengthAdjust="spacing" textLength="16" x="386" y="153.5679">: E</text><line style="stroke:#181818;stroke-width:0.5;" x1="380" x2="408" y1="159.6699" y2="159.6699"/></g><g id="elem_x16"><rect fill="#F1F1F1" height="39.0679" style="stroke:#181818;stroke-width:0.5;" width="30" x="444" y="136.602"/><text fill="#000000" font-family="sans-serif" font-size="14" lengthAdjust="spacing" textLength="16" x="451" y="153.5679">: E</text><line style="stroke:#181818;stroke-width:0.5;" x1="445" x2="473" y1="159.6699" y2="159.6699"/></g><g id="elem_x17"><rect fill="#F1F1F1" height="39.0679" style="stroke:#181818;stroke-width:0.5;" width="30" x="379" y="235.672"/><text fill="#000000" font-family="sans-serif" font-size="14" lengthAdjust="spacing" textLength="16" x="386" y="252.6379">: E</text><line style="stroke:#181818;stroke-width:0.5;" x1="380" x2="408" y1="258.7399" y2="258.7399"/></g><g id="elem_x11"><rect fill="#F1F1F1" height="39.0679" style="stroke:#181818;stroke-width:0.5;" width="29" x="381.5" y="398.732"/><text fill="#000000" font-family="sans-serif" font-size="14" lengthAdjust="spacing" textLength="15" x="388.5" y="415.6979">: F</text><line style="stroke:#181818;stroke-width:0.5;" x1="382.5" x2="409.5" y1="421.7999" y2="421.7999"/></g><g id="elem_x12"><rect fill="#F1F1F1" height="39.0679" style="stroke:#181818;stroke-width:0.5;" width="29" x="445.5" y="398.732"/><text fill="#000000" font-family="sans-serif" font-size="14" lengthAdjust="spacing" textLength="15" x="452.5" y="415.6979">: F</text><line style="stroke:#181818;stroke-width:0.5;" x1="446.5" x2="473.5" y1="421.7999" y2="421.7999"/></g><g id="elem_x13"><rect fill="#F1F1F1" height="39.0679" style="stroke:#181818;stroke-width:0.5;" width="29" x="381.5" y="497.802"/><text fill="#000000" font-family="sans-serif" font-size="14" lengthAdjust="spacing" textLength="15" x="388.5" y="514.7679">: F</text><line style="stroke:#181818;stroke-width:0.5;" x1="382.5" x2="409.5" y1="520.8699" y2="520.8699"/></g><g id="elem_x9"><rect fill="#F1F1F1" height="39.0679" style="stroke:#181818;stroke-width:0.5;" width="32" x="248" y="398.732"/><text fill="#000000" font-family="sans-serif" font-size="14" lengthAdjust="spacing" textLength="18" x="255" y="415.6979">: G</text><line style="stroke:#181818;stroke-width:0.5;" x1="249" x2="279" y1="421.7999" y2="421.7999"/></g><g id="elem_x10"><rect fill="#F1F1F1" height="39.0679" style="stroke:#181818;stroke-width:0.5;" width="32" x="315" y="398.732"/><text fill="#000000" font-family="sans-serif" font-size="14" lengthAdjust="spacing" textLength="18" x="322" y="415.6979">: G</text><line style="stroke:#181818;stroke-width:0.5;" x1="316" x2="346" y1="421.7999" y2="421.7999"/></g><!--SRC=[ZP3B3e8m44NtynKJle22F7Uyj_v29SH45vhWmiJqtrLQb2BJiSkUUt9dvYhxipmEM3m0N-zoE0tz3RqS2m_bY7T_-rjCttiZbwXjErhgQ42Za4Ox6aKmCMMDK6sCW3bMMeaTB76mzCFcddhHOqzNcyka3C-02NnNLp_r3LdV63jYUCpm11prBLdV6bqmF61uQF6vjrlrBjott6av-oCZVFlyQhMj0WNm1000]--></g></svg>