<?xml version="1.0" encoding="us-ascii" standalone="no"?><svg xmlns="http://www.w3.org/2000/svg" xmlns:xlink="http://www.w3.org/1999/xlink" contentStyleType="text/css" height="386px" preserveAspectRatio="none" style="width:205px;height:386px;background:#FFFFFF;" version="1.1" viewBox="0 0 205 386" width="205px" zoomAndPan="magnify"><defs/><g><!--class A--><g id="elem_A"><rect fill="#F1F1F1" height="48" id="A" rx="2.5" ry="2.5" style="stroke:#181818;stroke-width:0.5;" width="41" x="45.5" y="7"/><ellipse cx="60.5" cy="23" fill="#ADD1B2" rx="11" ry="11" style="stroke:#181818;stroke-width:1.0;"/><path d="M59.9688,29.9219 Q58.2188,29.9219 57.0781,29.1875 Q55.9531,28.4375 55.3906,27.0938 Q54.8438,25.7344 54.8438,23.9375 Q54.8438,21.9063 55.5,20.4531 Q56.1563,19 57.4375,18.2188 Q58.7188,17.4375 60.5938,17.4375 Q61.4844,17.4375 62.1563,17.625 Q62.8281,17.7969 63.5156,18.1406 L62.7031,20.1563 Q62.0781,19.8438 61.5313,19.7188 Q61,19.5938 60.5156,19.5938 Q59.3438,19.5938 58.6406,20.125 Q57.9375,20.6563 57.6406,21.6094 Q57.3438,22.5625 57.3438,23.8281 Q57.3438,25.8438 58.0625,26.8125 Q58.7813,27.7656 60.375,27.7656 Q60.9688,27.7656 61.5938,27.6094 Q62.2188,27.4531 63.0469,27.0781 L63.0469,29.2969 Q62.3125,29.6094 61.5156,29.7656 Q60.7344,29.9219 59.9688,29.9219 Z " fill="#000000"/><text fill="#000000" font-family="sans-serif" font-size="14" lengthAdjust="spacing" textLength="9" x="74.5" y="28.432">A</text><line style="stroke:#181818;stroke-width:0.5;" x1="46.5" x2="85.5" y1="39" y2="39"/><line style="stroke:#181818;stroke-width:0.5;" x1="46.5" x2="85.5" y1="47" y2="47"/></g><!--class B--><g id="elem_B"><rect fill="#F1F1F1" height="48" id="B" rx="2.5" ry="2.5" style="stroke:#181818;stroke-width:0.5;" width="41" x="7.5" y="115"/><ellipse cx="22.5" cy="131" fill="#ADD1B2" rx="11" ry="11" style="stroke:#181818;stroke-width:1.0;"/><path d="M21.9688,137.9219 Q20.2188,137.9219 19.0781,137.1875 Q17.9531,136.4375 17.3906,135.0938 Q16.8438,133.7344 16.8438,131.9375 Q16.8438,129.9063 17.5,128.4531 Q18.1563,127 19.4375,126.2188 Q20.7188,125.4375 22.5938,125.4375 Q23.4844,125.4375 24.1563,125.625 Q24.8281,125.7969 25.5156,126.1406 L24.7031,128.1563 Q24.0781,127.8438 23.5313,127.7188 Q23,127.5938 22.5156,127.5938 Q21.3438,127.5938 20.6406,128.125 Q19.9375,128.6563 19.6406,129.6094 Q19.3438,130.5625 19.3438,131.8281 Q19.3438,133.8438 20.0625,134.8125 Q20.7813,135.7656 22.375,135.7656 Q22.9688,135.7656 23.5938,135.6094 Q24.2188,135.4531 25.0469,135.0781 L25.0469,137.2969 Q24.3125,137.6094 23.5156,137.7656 Q22.7344,137.9219 21.9688,137.9219 Z " fill="#000000"/><text fill="#000000" font-family="sans-serif" font-size="14" lengthAdjust="spacing" textLength="9" x="36.5" y="136.432">B</text><line style="stroke:#181818;stroke-width:0.5;" x1="8.5" x2="47.5" y1="147" y2="147"/><line style="stroke:#181818;stroke-width:0.5;" x1="8.5" x2="47.5" y1="155" y2="155"/></g><!--class C--><g id="elem_C"><rect fill="#F1F1F1" height="48" id="C" rx="2.5" ry="2.5" style="stroke:#181818;stroke-width:0.5;" width="41" x="83.5" y="115"/><ellipse cx="98.5" cy="131" fill="#ADD1B2" rx="11" ry="11" style="stroke:#181818;stroke-width:1.0;"/><path d="M97.9688,137.9219 Q96.2188,137.9219 95.0781,137.1875 Q93.9531,136.4375 93.3906,135.0938 Q92.8438,133.7344 92.8438,131.9375 Q92.8438,129.9063 93.5,128.4531 Q94.1563,127 95.4375,126.2188 Q96.7188,125.4375 98.5938,125.4375 Q99.4844,125.4375 100.1563,125.625 Q100.8281,125.7969 101.5156,126.1406 L100.7031,128.1563 Q100.0781,127.8438 99.5313,127.7188 Q99,127.5938 98.5156,127.5938 Q97.3438,127.5938 96.6406,128.125 Q95.9375,128.6563 95.6406,129.6094 Q95.3438,130.5625 95.3438,131.8281 Q95.3438,133.8438 96.0625,134.8125 Q96.7813,135.7656 98.375,135.7656 Q98.9688,135.7656 99.5938,135.6094 Q100.2188,135.4531 101.0469,135.0781 L101.0469,137.2969 Q100.3125,137.6094 99.5156,137.7656 Q98.7344,137.9219 97.9688,137.9219 Z " fill="#000000"/><text fill="#000000" font-family="sans-serif" font-size="14" lengthAdjust="spacing" textLength="9" x="112.5" y="136.432">C</text><line style="stroke:#181818;stroke-width:0.5;" x1="84.5" x2="123.5" y1="147" y2="147"/><line style="stroke:#181818;stroke-width:0.5;" x1="84.5" x2="123.5" y1="155" y2="155"/></g><!--class D--><g id="elem_D"><rect fill="#F1F1F1" height="48" id="D" rx="2.5" ry="2.5" style="stroke:#181818;stroke-width:0.5;" width="42" x="7" y="223"/><ellipse cx="22" cy="239" fill="#ADD1B2" rx="11" ry="11" style="stroke:#181818;stroke-width:1.0;"/><path d="M21.4688,245.9219 Q19.7188,245.9219 18.5781,245.1875 Q17.4531,244.4375 16.8906,243.0938 Q16.3438,241.7344 16.3438,239.9375 Q16.3438,237.9063 17,236.4531 Q17.6563,235 18.9375,234.2188 Q20.2188,233.4375 22.0938,233.4375 Q22.9844,233.4375 23.6563,233.625 Q24.3281,233.7969 25.0156,234.1406 L24.2031,236.1563 Q23.5781,235.8438 23.0313,235.7188 Q22.5,235.5938 22.0156,235.5938 Q20.8438,235.5938 20.1406,236.125 Q19.4375,236.6563 19.1406,237.6094 Q18.8438,238.5625 18.8438,239.8281 Q18.8438,241.8438 19.5625,242.8125 Q20.2813,243.7656 21.875,243.7656 Q22.4688,243.7656 23.0938,243.6094 Q23.7188,243.4531 24.5469,243.0781 L24.5469,245.2969 Q23.8125,245.6094 23.0156,245.7656 Q22.2344,245.9219 21.4688,245.9219 Z " fill="#000000"/><text fill="#000000" font-family="sans-serif" font-size="14" lengthAdjust="spacing" textLength="10" x="36" y="244.432">D</text><line style="stroke:#181818;stroke-width:0.5;" x1="8" x2="48" y1="255" y2="255"/><line style="stroke:#181818;stroke-width:0.5;" x1="8" x2="48" y1="263" y2="263"/></g><!--class E--><g id="elem_E"><rect fill="#F1F1F1" height="48" id="E" rx="2.5" ry="2.5" style="stroke:#181818;stroke-width:0.5;" width="40" x="84" y="223"/><ellipse cx="99" cy="239" fill="#ADD1B2" rx="11" ry="11" style="stroke:#181818;stroke-width:1.0;"/><path d="M98.4688,245.9219 Q96.7188,245.9219 95.5781,245.1875 Q94.4531,244.4375 93.8906,243.0938 Q93.3438,241.7344 93.3438,239.9375 Q93.3438,237.9063 94,236.4531 Q94.6563,235 95.9375,234.2188 Q97.2188,233.4375 99.0938,233.4375 Q99.9844,233.4375 100.6563,233.625 Q101.3281,233.7969 102.0156,234.1406 L101.2031,236.1563 Q100.5781,235.8438 100.0313,235.7188 Q99.5,235.5938 99.0156,235.5938 Q97.8438,235.5938 97.1406,236.125 Q96.4375,236.6563 96.1406,237.6094 Q95.8438,238.5625 95.8438,239.8281 Q95.8438,241.8438 96.5625,242.8125 Q97.2813,243.7656 98.875,243.7656 Q99.4688,243.7656 100.0938,243.6094 Q100.7188,243.4531 101.5469,243.0781 L101.5469,245.2969 Q100.8125,245.6094 100.0156,245.7656 Q99.2344,245.9219 98.4688,245.9219 Z " fill="#000000"/><text fill="#000000" font-family="sans-serif" font-size="14" lengthAdjust="spacing" textLength="8" x="113" y="244.432">E</text><line style="stroke:#181818;stroke-width:0.5;" x1="85" x2="123" y1="255" y2="255"/><line style="stroke:#181818;stroke-width:0.5;" x1="85" x2="123" y1="263" y2="263"/></g><!--class F--><g id="elem_F"><rect fill="#F1F1F1" height="48" id="F" rx="2.5" ry="2.5" style="stroke:#181818;stroke-width:0.5;" width="39" x="159.5" y="223"/><ellipse cx="174.5" cy="239" fill="#ADD1B2" rx="11" ry="11" style="stroke:#181818;stroke-width:1.0;"/><path d="M173.9688,245.9219 Q172.2188,245.9219 171.0781,245.1875 Q169.9531,244.4375 169.3906,243.0938 Q168.8438,241.7344 168.8438,239.9375 Q168.8438,237.9063 169.5,236.4531 Q170.1563,235 171.4375,234.2188 Q172.7188,233.4375 174.5938,233.4375 Q175.4844,233.4375 176.1563,233.625 Q176.8281,233.7969 177.5156,234.1406 L176.7031,236.1563 Q176.0781,235.8438 175.5313,235.7188 Q175,235.5938 174.5156,235.5938 Q173.3438,235.5938 172.6406,236.125 Q171.9375,236.6563 171.6406,237.6094 Q171.3438,238.5625 171.3438,239.8281 Q171.3438,241.8438 172.0625,242.8125 Q172.7813,243.7656 174.375,243.7656 Q174.9688,243.7656 175.5938,243.6094 Q176.2188,243.4531 177.0469,243.0781 L177.0469,245.2969 Q176.3125,245.6094 175.5156,245.7656 Q174.7344,245.9219 173.9688,245.9219 Z " fill="#000000"/><text fill="#000000" font-family="sans-serif" font-size="14" lengthAdjust="spacing" textLength="7" x="188.5" y="244.432">F</text><line style="stroke:#181818;stroke-width:0.5;" x1="160.5" x2="197.5" y1="255" y2="255"/><line style="stroke:#181818;stroke-width:0.5;" x1="160.5" x2="197.5" y1="263" y2="263"/></g><!--class G--><g id="elem_G"><rect fill="#F1F1F1" height="48" id="G" rx="2.5" ry="2.5" style="stroke:#181818;stroke-width:0.5;" width="42" x="7" y="331"/><ellipse cx="22" cy="347" fill="#ADD1B2" rx="11" ry="11" style="stroke:#181818;stroke-width:1.0;"/><path d="M21.4688,353.9219 Q19.7188,353.9219 18.5781,353.1875 Q17.4531,352.4375 16.8906,351.0938 Q16.3438,349.7344 16.3438,347.9375 Q16.3438,345.9063 17,344.4531 Q17.6563,343 18.9375,342.2188 Q20.2188,341.4375 22.0938,341.4375 Q22.9844,341.4375 23.6563,341.625 Q24.3281,341.7969 25.0156,342.1406 L24.2031,344.1563 Q23.5781,343.8438 23.0313,343.7188 Q22.5,343.5938 22.0156,343.5938 Q20.8438,343.5938 20.1406,344.125 Q19.4375,344.6563 19.1406,345.6094 Q18.8438,346.5625 18.8438,347.8281 Q18.8438,349.8438 19.5625,350.8125 Q20.2813,351.7656 21.875,351.7656 Q22.4688,351.7656 23.0938,351.6094 Q23.7188,351.4531 24.5469,351.0781 L24.5469,353.2969 Q23.8125,353.6094 23.0156,353.7656 Q22.2344,353.9219 21.4688,353.9219 Z " fill="#000000"/><text fill="#000000" font-family="sans-serif" font-size="14" lengthAdjust="spacing" textLength="10" x="36" y="352.432">G</text><line style="stroke:#181818;stroke-width:0.5;" x1="8" x2="48" y1="363" y2="363"/><line style="stroke:#181818;stroke-width:0.5;" x1="8" x2="48" y1="371" y2="371"/></g><!--reverse link A to B--><g id="link_A_B"><path codeLine="1" d="M51.5841,72.2035 C45.2441,89.8835 42.65,97.13 36.32,114.79 " fill="none" id="A-backto-B" style="stroke:#181818;stroke-width:1.0;"/><polygon fill="none" points="57.66,55.26,45.9362,70.1782,57.2319,74.2288,57.66,55.26" style="stroke:#181818;stroke-width:1.0;"/></g><!--reverse link A to C--><g id="link_A_C"><path codeLine="2" d="M80.4159,72.2035 C86.7559,89.8835 89.35,97.13 95.68,114.79 " fill="none" id="A-backto-C" style="stroke:#181818;stroke-width:1.0;"/><polygon fill="none" points="74.34,55.26,74.7681,74.2288,86.0638,70.1782,74.34,55.26" style="stroke:#181818;stroke-width:1.0;"/></g><!--reverse link C to D--><g id="link_C_D"><path codeLine="4" d="M76.835,177.891 C64.165,195.571 57.3,205.13 44.64,222.79 " fill="none" id="C-backto-D" style="stroke:#181818;stroke-width:1.0;"/><polygon fill="none" points="87.32,163.26,71.958,174.396,81.712,181.386,87.32,163.26" style="stroke:#181818;stroke-width:1.0;"/></g><!--reverse link C to E--><g id="link_C_E"><path codeLine="5" d="M104,181.26 C104,198.94 104,205.13 104,222.79 " fill="none" id="C-backto-E" style="stroke:#181818;stroke-width:1.0;"/><polygon fill="none" points="104,163.26,98,181.26,110,181.26,104,163.26" style="stroke:#181818;stroke-width:1.0;"/></g><!--reverse link C to F--><g id="link_C_F"><path codeLine="6" d="M130.8514,177.9576 C143.3514,195.6376 150.08,205.13 162.58,222.79 " fill="none" id="C-backto-F" style="stroke:#181818;stroke-width:1.0;"/><polygon fill="none" points="120.46,163.26,125.9522,181.4214,135.7506,174.4938,120.46,163.26" style="stroke:#181818;stroke-width:1.0;"/></g><!--reverse link D to G--><g id="link_D_G"><path codeLine="8" d="M28,289.26 C28,306.94 28,313.13 28,330.79 " fill="none" id="D-backto-G" style="stroke:#181818;stroke-width:1.0;"/><polygon fill="none" points="28,271.26,22,289.26,34,289.26,28,271.26" style="stroke:#181818;stroke-width:1.0;"/></g><!--SRC=[SrImgT7LLN3YSeGmdBcud24i5nZ35SPmu-9oWR3S0G00]--></g></svg>