<?xml version="1.0" encoding="us-ascii" standalone="no"?><svg xmlns="http://www.w3.org/2000/svg" xmlns:xlink="http://www.w3.org/1999/xlink" contentStyleType="text/css" height="278px" preserveAspectRatio="none" style="width:138px;height:278px;background:#FFFFFF;" version="1.1" viewBox="0 0 138 278" width="138px" zoomAndPan="magnify"><defs/><g><!--class Base--><g id="elem_Base"><rect codeLine="1" fill="#F1F1F1" height="102.2717" id="Base" rx="2.5" ry="2.5" style="stroke:#181818;stroke-width:0.5;" width="124" x="7" y="7"/><ellipse cx="22" cy="31.0679" fill="#ADD1B2" rx="11" ry="11" style="stroke:#181818;stroke-width:1.0;"/><path d="M21.4688,37.9898 Q19.7188,37.9898 18.5781,37.2554 Q17.4531,36.5054 16.8906,35.1617 Q16.3438,33.8023 16.3438,32.0054 Q16.3438,29.9742 17,28.521 Q17.6563,27.0679 18.9375,26.2867 Q20.2188,25.5054 22.0938,25.5054 Q22.9844,25.5054 23.6563,25.6929 Q24.3281,25.8648 25.0156,26.2085 L24.2031,28.2242 Q23.5781,27.9117 23.0313,27.7867 Q22.5,27.6617 22.0156,27.6617 Q20.8438,27.6617 20.1406,28.1929 Q19.4375,28.7242 19.1406,29.6773 Q18.8438,30.6304 18.8438,31.896 Q18.8438,33.9117 19.5625,34.8804 Q20.2813,35.8335 21.875,35.8335 Q22.4688,35.8335 23.0938,35.6773 Q23.7188,35.521 24.5469,35.146 L24.5469,37.3648 Q23.8125,37.6773 23.0156,37.8335 Q22.2344,37.9898 21.4688,37.9898 Z " fill="#000000"/><text fill="#000000" font-family="sans-serif" font-size="14" lengthAdjust="spacing" textLength="32" x="66" y="26.9659">Base</text><text fill="#000000" font-family="sans-serif" font-size="14" lengthAdjust="spacing" textLength="92" x="36" y="46.0339">Super - Padre</text><line style="stroke:#181818;stroke-width:0.5;" x1="8" x2="130" y1="55.1358" y2="55.1358"/><rect fill="none" height="6" style="stroke:#C82930;stroke-width:1.0;" width="6" x="15" y="67.1698"/><text fill="#000000" font-family="sans-serif" font-size="14" lengthAdjust="spacing" textLength="66" x="27" y="74.1018">attributos</text><line style="stroke:#181818;stroke-width:0.5;" x1="8" x2="130" y1="82.2038" y2="82.2038"/><ellipse cx="18" cy="97.2377" fill="#84BE84" rx="3" ry="3" style="stroke:#038048;stroke-width:1.0;"/><text fill="#000000" font-family="sans-serif" font-size="14" lengthAdjust="spacing" textLength="66" x="27" y="101.1697">metodos()</text></g><!--class Derived--><g id="elem_Derived"><rect codeLine="6" fill="#F1F1F1" height="102.2717" id="Derived" rx="2.5" ry="2.5" style="stroke:#181818;stroke-width:0.5;" width="97" x="20.5" y="169.27"/><ellipse cx="35.5" cy="193.3379" fill="#ADD1B2" rx="11" ry="11" style="stroke:#181818;stroke-width:1.0;"/><path d="M34.9688,200.2598 Q33.2188,200.2598 32.0781,199.5254 Q30.9531,198.7754 30.3906,197.4317 Q29.8438,196.0723 29.8438,194.2754 Q29.8438,192.2442 30.5,190.791 Q31.1563,189.3379 32.4375,188.5567 Q33.7188,187.7754 35.5938,187.7754 Q36.4844,187.7754 37.1563,187.9629 Q37.8281,188.1348 38.5156,188.4785 L37.7031,190.4942 Q37.0781,190.1817 36.5313,190.0567 Q36,189.9317 35.5156,189.9317 Q34.3438,189.9317 33.6406,190.4629 Q32.9375,190.9942 32.6406,191.9473 Q32.3438,192.9004 32.3438,194.166 Q32.3438,196.1817 33.0625,197.1504 Q33.7813,198.1035 35.375,198.1035 Q35.9688,198.1035 36.5938,197.9473 Q37.2188,197.791 38.0469,197.416 L38.0469,199.6348 Q37.3125,199.9473 36.5156,200.1035 Q35.7344,200.2598 34.9688,200.2598 Z " fill="#000000"/><text fill="#000000" font-family="sans-serif" font-size="14" lengthAdjust="spacing" textLength="60" x="52" y="189.2359">Derivada</text><text fill="#000000" font-family="sans-serif" font-size="14" lengthAdjust="spacing" textLength="65" x="49.5" y="208.3039">Sub - Hija</text><line style="stroke:#181818;stroke-width:0.5;" x1="21.5" x2="116.5" y1="217.4058" y2="217.4058"/><rect fill="none" height="6" style="stroke:#C82930;stroke-width:1.0;" width="6" x="28.5" y="229.4398"/><text fill="#000000" font-family="sans-serif" font-size="14" lengthAdjust="spacing" textLength="66" x="40.5" y="236.3718">attributos</text><line style="stroke:#181818;stroke-width:0.5;" x1="21.5" x2="116.5" y1="244.4738" y2="244.4738"/><ellipse cx="31.5" cy="259.5077" fill="#84BE84" rx="3" ry="3" style="stroke:#038048;stroke-width:1.0;"/><text fill="#000000" font-family="sans-serif" font-size="14" lengthAdjust="spacing" textLength="66" x="40.5" y="263.4397">metodos()</text></g><!--reverse link Base to Derived--><g id="link_Base_Derived"><path codeLine="11" d="M69,127.4 C69,146.41 69,150.02 69,169.04 " fill="none" id="Base-backto-Derived" style="stroke:#181818;stroke-width:1.0;"/><polygon fill="none" points="69,109.4,63,127.4,75,127.4,69,109.4" style="stroke:#181818;stroke-width:1.0;"/></g><!--SRC=[Iyv9B2vMS4eiJbL8B5PG0Z5Yye9B2rAB57GL0X9JYbAL5AgvT1KIIqgACfDAI_ABkRGLSbDBybFoYpKqkMgvk9B19hYa5cMMfQQ03G6p4rCIGGOb0OtnoCnA96GAs0KsDRgwC9C0]--></g></svg>